Coordinates
version=1
nRows=7
nColumns=46
inDegrees=yes

Units are S.I. units (second, meters, Newtons, ...)
Angles are in degrees.

endheader
time	pelvis_tilt	pelvis_list	pelvis_rotation	pelvis_tx	pelvis_ty	pelvis_tz	bb_angle	bb_tx	bb_ty	bb_tz	hip_flexion_r	hip_adduction_r	hip_rotation_r	knee_angle_r	knee_angle_r_beta	ankle_angle_r	subtalar_angle_r	mtp_angle_r	crank_angle_r	hip_flexion_l	hip_adduction_l	hip_rotation_l	knee_angle_l	knee_angle_l_beta	ankle_angle_l	subtalar_angle_l	mtp_angle_l	crank_angle_l	lumbar_extension	lumbar_bending	lumbar_rotation	arm_flex_r	arm_add_r	arm_rot_r	elbow_flex_r	pro_sup_r	wrist_flex_r	wrist_dev_r	arm_flex_l	arm_add_l	arm_rot_l	elbow_flex_l	pro_sup_l	wrist_flex_l	wrist_dev_l
      0.00000000	    -19.31590555	     -1.40980869	     -2.37972877	      0.14712870	      1.03738310	     -0.22080058	      0.00000000	      0.50000000	      0.00000000	      0.25000000	     80.12244726	     -1.14285629	      3.65326203	     76.38663360	      1.33319826	     -1.11609448	     -5.14255598	      0.00000000	      0.00000000	     59.22093961	     -4.28489589	      4.48538693	     86.30431071	      1.50629438	    -10.08956946	    -16.43677318	      0.00000000	      0.00000000	    -43.34826054	      0.66581254	      1.39250003	     78.98173616	     -4.15724997	     25.89325223	     39.12304550	     29.06041263	      0.00000000	      0.00000000	     75.50162822	     -8.25022184	     22.74509657	     41.22760354	     29.09517783	      0.00000000	      0.00000000
      0.00500000	    -19.37185358	     -1.27837563	     -2.41332241	      0.14715133	      1.03729641	     -0.22074715	      0.00000000	      0.50000000	      0.00000000	      0.25000000	     80.22218637	     -1.15436515	      3.78220125	     76.42219781	      1.33381897	     -1.06586272	     -5.11426994	      0.00000000	      0.00000000	     59.23690275	     -4.22948780	      4.34108129	     86.25568611	      1.50544572	    -10.03025278	    -16.45251950	      0.00000000	      0.00000000	    -43.26234386	      0.49971616	      1.25635993	     79.02783073	     -3.77922602	     24.83906078	     38.13311315	     32.26418964	      0.00000000	      0.00000000	     75.54220934	     -8.04510994	     21.86595876	     40.44574489	     32.29881094	      0.00000000	      0.00000000
      0.01000000	    -19.29371936	     -1.44050508	     -2.38501099	      0.14707665	      1.03738943	     -0.22081137	      0.00000000	      0.50000000	      0.00000000	      0.25000000	     80.11655157	     -1.12558612	      3.61825346	     76.40774104	      1.33356666	     -1.13197107	     -5.20866438	      0.00000000	      0.00000000	     59.19123684	     -4.32800452	      4.50561806	     86.30153661	      1.50624596	     -9.86807311	    -16.16396031	      0.00000000	      0.00000000	    -43.35204187	      0.67166737	      1.40846895	     79.29503899	     -4.19733764	     26.25964908	     37.74848189	     33.16600691	      0.00000000	      0.00000000	     75.80918475	     -8.40586972	     23.42898345	     39.96040981	     33.13011094	      0.00000000	      0.00000000
      0.01500000	    -19.23622407	     -1.45573343	     -2.35142959	      0.14704115	      1.03761366	     -0.22090842	      0.00000000	      0.50000000	      0.00000000	      0.25000000	     80.04373899	     -1.15825894	      3.60884222	     76.40139984	      1.33345598	     -1.14766557	     -5.26069856	      0.00000000	      0.00000000	     59.10720153	     -4.27995240	      4.52547022	     86.27946063	      1.50586066	     -9.84056351	    -16.31489994	      0.00000000	      0.00000000	    -43.51365540	      0.68100369	      1.45255634	     79.13040175	     -4.36298390	     25.66932016	     38.46496823	     33.86282618	      0.00000000	      0.00000000	     75.66081237	     -8.38280060	     22.95675621	     40.53554685	     33.81658544	      0.00000000	      0.00000000
      0.02000000	    -19.20342930	     -1.50221237	     -2.36826455	      0.14691759	      1.03764379	     -0.22081351	      0.00000000	      0.50000000	      0.00000000	      0.25000000	     80.05616219	     -1.16619484	      3.53976476	     76.50031159	      1.33518232	     -1.01092234	     -5.04869354	      0.00000000	      0.00000000	     59.09413111	     -4.37403755	      4.58168100	     86.33095659	      1.50675944	     -9.54884022	    -15.79568343	      0.00000000	      0.00000000	    -43.47434069	      0.71299417	      1.43256434	     79.29249010	     -4.23970732	     25.93214496	     37.74074728	     34.37509168	      0.00000000	      0.00000000	     75.83843798	     -8.40238843	     23.16818108	     39.83001801	     34.29973749	      0.00000000	      0.00000000
      0.02500000	    -19.26152249	     -1.49712917	     -2.35368762	      0.14691033	      1.03768832	     -0.22089406	      0.00000000	      0.50000000	      0.00000000	      0.25000000	     80.09850766	     -1.15547569	      3.56502046	     76.44884000	      1.33428397	     -1.13531295	     -5.24272594	      0.00000000	      0.00000000	     59.13119083	     -4.33323004	      4.56294837	     86.25263375	      1.50539245	     -9.77021666	    -16.14222407	      0.00000000	      0.00000000	    -43.46078099	      0.75053525	      1.47408500	     79.16858732	     -4.30735669	     25.69670252	     38.04964474	     34.93195144	      0.00000000	      0.00000000	     75.69134829	     -8.39657781	     22.89515276	     40.22205552	     34.84742258	      0.00000000	      0.00000000
      0.03000000	    -19.24623459	     -1.50196753	     -2.36058584	      0.14690139	      1.03770071	     -0.22082103	      0.00000000	      0.50000000	      0.00000000	      0.25000000	     80.09458446	     -1.14256217	      3.56320452	     76.47980996	      1.33482450	     -1.06065327	     -5.19491676	      0.00000000	      0.00000000	     59.10855542	     -4.36392139	      4.56294129	     86.25416427	      1.50541916	     -9.60513415	    -15.93241747	      0.00000000	      0.00000000	    -43.53990271	      0.69919694	      1.46367453	     78.92807815	     -4.39104445	     25.23816123	     38.76713355	     35.33897962	      0.00000000	      0.00000000	     75.50045759	     -8.47979515	     22.44233512	     40.92584960	     35.24762711	      0.00000000	      0.00000000
